# xmcd CD database file
#
# Track frame offsets:
#	150
#	12695
#	25143
#	37213
#	51805
#	64679
#	78458
#	99528
#	113343
#	129225
#	146278
#
# Disc length: 2162 seconds
#
# Revision: 0
# Processed by: cddbd v1.4PL0 Copyright (c) Steve Scherf et al.
# Submitted via: CDex 1.40Release
#
DISCID=8b08700b
DTITLE=Gene Deer - Live and Alone
DYEAR=2002
DGENRE=Blues
TTITLE0=End of the Road
TTITLE1=Listen To The Night
TTITLE2=C'mon Back
TTITLE3=Every'thangs Gonna Be Alright
TTITLE4=Everybody Knows
TTITLE5=Just Shoulda' Lay'd Off a The Booze
TTITLE6=Midnight Healing
TTITLE7=Sayline City
TTITLE8=Just For Me
TTITLE9=Don't Turn Your Back (On The Blues)
TTITLE10=Your Love For Christmas
EXTD=YEAR: 2002 ID3G: 0
EXTT0=
EXTT1=
EXTT2=
EXTT3=
EXTT4=
EXTT5=
EXTT6=
EXTT7=
EXTT8=
EXTT9=
EXTT10=
PLAYORDER=
